<?xml version="1.0" encoding="UTF-8"?>
<!--Generator: Apple Native CoreSVG 175.5-->
<!DOCTYPE svg
PUBLIC "-//W3C//DTD SVG 1.1//EN"
       "http://www.w3.org/Graphics/SVG/1.1/DTD/svg11.dtd">
<svg version="1.1" xmlns="http://www.w3.org/2000/svg" xmlns:xlink="http://www.w3.org/1999/xlink" width="3300" height="2200">
 <!--glyph: "", point size: 100.0, font version: "18.0d12e2", template writer version: "101"-->
 <style>.monochrome-0 {fill:#000000}
.monochrome-1 {fill:#000000}

.multicolor-0:white {fill:#FFFFFF}
.multicolor-1:systemGreenColor {fill:#28CD41}

.SFSymbolsPreview28CD41 {fill:#28CD41;opacity:1.0}
.SFSymbolsPreviewFFFFFF {fill:#FFFFFF;opacity:1.0}
</style>
 <g id="Notes">
  <rect height="2200" id="artboard" style="fill:white;opacity:1" width="3300" x="0" y="0"/>
  <line style="fill:none;stroke:black;opacity:1;stroke-width:0.5;" x1="263" x2="3036" y1="292" y2="292"/>
  <text style="stroke:none;fill:black;font-family:sans-serif;font-size:13;font-weight:bold;" transform="matrix(1 0 0 1 263 322)">Weight/Scale Variations</text>
  <text style="stroke:none;fill:black;font-family:sans-serif;font-size:13;text-anchor:middle;" transform="matrix(1 0 0 1 559.711 322)">Ultralight</text>
  <text style="stroke:none;fill:black;font-family:sans-serif;font-size:13;text-anchor:middle;" transform="matrix(1 0 0 1 856.422 322)">Thin</text>
  <text style="stroke:none;fill:black;font-family:sans-serif;font-size:13;text-anchor:middle;" transform="matrix(1 0 0 1 1153.13 322)">Light</text>
  <text style="stroke:none;fill:black;font-family:sans-serif;font-size:13;text-anchor:middle;" transform="matrix(1 0 0 1 1449.84 322)">Regular</text>
  <text style="stroke:none;fill:black;font-family:sans-serif;font-size:13;text-anchor:middle;" transform="matrix(1 0 0 1 1746.56 322)">Medium</text>
  <text style="stroke:none;fill:black;font-family:sans-serif;font-size:13;text-anchor:middle;" transform="matrix(1 0 0 1 2043.27 322)">Semibold</text>
  <text style="stroke:none;fill:black;font-family:sans-serif;font-size:13;text-anchor:middle;" transform="matrix(1 0 0 1 2339.98 322)">Bold</text>
  <text style="stroke:none;fill:black;font-family:sans-serif;font-size:13;text-anchor:middle;" transform="matrix(1 0 0 1 2636.69 322)">Heavy</text>
  <text style="stroke:none;fill:black;font-family:sans-serif;font-size:13;text-anchor:middle;" transform="matrix(1 0 0 1 2933.4 322)">Black</text>
  <line style="fill:none;stroke:black;opacity:1;stroke-width:0.5;" x1="263" x2="3036" y1="1903" y2="1903"/>
  <g transform="matrix(1 0 0 1 263 1933)">
   <path d="M9.24805 0.830078C13.5547 0.830078 17.1387-2.74414 17.1387-7.05078C17.1387-11.3574 13.5449-14.9316 9.23828-14.9316C4.94141-14.9316 1.36719-11.3574 1.36719-7.05078C1.36719-2.74414 4.95117 0.830078 9.24805 0.830078ZM9.24805-0.654297C5.70312-0.654297 2.87109-3.49609 2.87109-7.05078C2.87109-10.6055 5.69336-13.4473 9.23828-13.4473C12.793-13.4473 15.6445-10.6055 15.6445-7.05078C15.6445-3.49609 12.8027-0.654297 9.24805-0.654297ZM5.6543-7.05078C5.6543-6.62109 5.95703-6.32812 6.40625-6.32812L8.50586-6.32812L8.50586-4.20898C8.50586-3.76953 8.79883-3.4668 9.22852-3.4668C9.67773-3.4668 9.9707-3.76953 9.9707-4.20898L9.9707-6.32812L12.0898-6.32812C12.5293-6.32812 12.832-6.62109 12.832-7.05078C12.832-7.49023 12.5293-7.79297 12.0898-7.79297L9.9707-7.79297L9.9707-9.90234C9.9707-10.3516 9.67773-10.6543 9.22852-10.6543C8.79883-10.6543 8.50586-10.3516 8.50586-9.90234L8.50586-7.79297L6.40625-7.79297C5.95703-7.79297 5.6543-7.49023 5.6543-7.05078Z"/>
  </g>
  <g transform="matrix(1 0 0 1 281.867 1933)">
   <path d="M11.709 2.91016C17.1582 2.91016 21.6699-1.61133 21.6699-7.05078C21.6699-12.5 17.1484-17.0117 11.6992-17.0117C6.25977-17.0117 1.74805-12.5 1.74805-7.05078C1.74805-1.61133 6.26953 2.91016 11.709 2.91016ZM11.709 1.25C7.09961 1.25 3.41797-2.44141 3.41797-7.05078C3.41797-11.6602 7.08984-15.3516 11.6992-15.3516C16.3086-15.3516 20.0098-11.6602 20.0098-7.05078C20.0098-2.44141 16.3184 1.25 11.709 1.25ZM7.17773-7.05078C7.17773-6.57227 7.50977-6.25 8.00781-6.25L10.8789-6.25L10.8789-3.36914C10.8789-2.88086 11.2109-2.53906 11.6895-2.53906C12.1777-2.53906 12.5195-2.87109 12.5195-3.36914L12.5195-6.25L15.4004-6.25C15.8887-6.25 16.2305-6.57227 16.2305-7.05078C16.2305-7.53906 15.8887-7.88086 15.4004-7.88086L12.5195-7.88086L12.5195-10.752C12.5195-11.25 12.1777-11.5918 11.6895-11.5918C11.2109-11.5918 10.8789-11.25 10.8789-10.752L10.8789-7.88086L8.00781-7.88086C7.50977-7.88086 7.17773-7.53906 7.17773-7.05078Z"/>
  </g>
  <g transform="matrix(1 0 0 1 305.646 1933)">
   <path d="M14.9707 5.66406C21.9336 5.66406 27.6953-0.0976562 27.6953-7.05078C27.6953-14.0137 21.9238-19.7754 14.9609-19.7754C8.00781-19.7754 2.25586-14.0137 2.25586-7.05078C2.25586-0.0976562 8.01758 5.66406 14.9707 5.66406ZM14.9707 3.84766C8.93555 3.84766 4.08203-1.01562 4.08203-7.05078C4.08203-13.0957 8.92578-17.9492 14.9609-17.9492C21.0059-17.9492 25.8691-13.0957 25.8691-7.05078C25.8691-1.01562 21.0156 3.84766 14.9707 3.84766ZM9.19922-7.05078C9.19922-6.5332 9.57031-6.17188 10.1172-6.17188L14.0625-6.17188L14.0625-2.2168C14.0625-1.67969 14.4336-1.29883 14.9512-1.29883C15.4883-1.29883 15.8594-1.66992 15.8594-2.2168L15.8594-6.17188L19.8145-6.17188C20.3516-6.17188 20.7324-6.5332 20.7324-7.05078C20.7324-7.59766 20.3613-7.96875 19.8145-7.96875L15.8594-7.96875L15.8594-11.9141C15.8594-12.4609 15.4883-12.8418 14.9512-12.8418C14.4336-12.8418 14.0625-12.4609 14.0625-11.9141L14.0625-7.96875L10.1172-7.96875C9.57031-7.96875 9.19922-7.59766 9.19922-7.05078Z"/>
  </g>
  <text style="stroke:none;fill:black;font-family:sans-serif;font-size:13;font-weight:bold;" transform="matrix(1 0 0 1 263 1953)">Design Variations</text>
  <text style="stroke:none;fill:black;font-family:sans-serif;font-size:13;" transform="matrix(1 0 0 1 263 1971)">Symbols are supported in up to nine weights and three scales.</text>
  <text style="stroke:none;fill:black;font-family:sans-serif;font-size:13;" transform="matrix(1 0 0 1 263 1989)">For optimal layout with text and other symbols, vertically align</text>
  <text style="stroke:none;fill:black;font-family:sans-serif;font-size:13;" transform="matrix(1 0 0 1 263 2007)">symbols with the adjacent text.</text>
  <line style="fill:none;stroke:#00AEEF;stroke-width:0.5;opacity:1.0;" x1="776" x2="776" y1="1919" y2="1933"/>
  <g transform="matrix(1 0 0 1 776 1933)">
   <path d="M3.31055 0.15625C3.82812 0.15625 4.08203-0.0390625 4.26758-0.585938L5.52734-4.0332L11.2891-4.0332L12.5488-0.585938C12.7344-0.0390625 12.9883 0.15625 13.4961 0.15625C14.0137 0.15625 14.3457-0.15625 14.3457-0.644531C14.3457-0.810547 14.3164-0.966797 14.2383-1.17188L9.6582-13.3691C9.43359-13.9648 9.0332-14.2676 8.4082-14.2676C7.80273-14.2676 7.39258-13.9746 7.17773-13.3789L2.59766-1.16211C2.51953-0.957031 2.49023-0.800781 2.49023-0.634766C2.49023-0.146484 2.80273 0.15625 3.31055 0.15625ZM6.00586-5.51758L8.37891-12.0898L8.42773-12.0898L10.8008-5.51758Z"/>
  </g>
  <line style="fill:none;stroke:#00AEEF;stroke-width:0.5;opacity:1.0;" x1="793.197" x2="793.197" y1="1919" y2="1933"/>
  <text style="stroke:none;fill:black;font-family:sans-serif;font-size:13;font-weight:bold;" transform="matrix(1 0 0 1 776 1953)">Margins</text>
  <text style="stroke:none;fill:black;font-family:sans-serif;font-size:13;" transform="matrix(1 0 0 1 776 1971)">Leading and trailing margins on the left and right side of each symbol</text>
  <text style="stroke:none;fill:black;font-family:sans-serif;font-size:13;" transform="matrix(1 0 0 1 776 1989)">can be adjusted by modifying the x-location of the margin guidelines.</text>
  <text style="stroke:none;fill:black;font-family:sans-serif;font-size:13;" transform="matrix(1 0 0 1 776 2007)">Modifications are automatically applied proportionally to all</text>
  <text style="stroke:none;fill:black;font-family:sans-serif;font-size:13;" transform="matrix(1 0 0 1 776 2025)">scales and weights.</text>
  <g transform="matrix(1 0 0 1 1289 1933)">
   <path d="M2.8418 1.86523L4.54102 3.57422C5.40039 4.44336 6.38672 4.38477 7.31445 3.35938L18.0078-8.42773L17.041-9.4043L6.42578 2.27539C6.07422 2.67578 5.74219 2.77344 5.27344 2.30469L4.10156 1.14258C3.63281 0.683594 3.74023 0.341797 4.14062-0.0195312L15.6152-10.8203L14.6387-11.7871L3.04688-0.898438C2.06055 0.0195312 1.98242 0.996094 2.8418 1.86523ZM9.25781-16.3281C8.83789-15.918 8.80859-15.3418 9.04297-14.9512C9.27734-14.5898 9.73633-14.3555 10.3809-14.5215C11.8457-14.8633 13.3691-14.9219 14.7949-13.9844L14.209-12.5293C13.8672-11.6992 14.043-11.1133 14.5801-10.5664L16.875-8.25195C17.3633-7.76367 17.7734-7.74414 18.3398-7.8418L19.4043-8.03711L20.0684-7.36328L20.0293-6.80664C19.9902-6.30859 20.1172-5.92773 20.6055-5.44922L21.3672-4.70703C21.8457-4.22852 22.4609-4.19922 22.9297-4.66797L25.8398-7.58789C26.3086-8.05664 26.2891-8.65234 25.8105-9.13086L25.0391-9.89258C24.5605-10.3711 24.1895-10.5273 23.7109-10.4883L23.1348-10.4395L22.4902-11.0742L22.7344-12.1973C22.8613-12.7637 22.7051-13.2031 22.1191-13.7891L19.9219-15.9766C16.582-19.2969 12.1484-19.2188 9.25781-16.3281ZM10.752-15.957C13.1836-17.7344 16.4746-17.4316 18.7012-15.2051L21.1328-12.793C21.3672-12.5586 21.4062-12.373 21.3379-12.0312L21.0156-10.5469L22.5195-9.0625L23.5059-9.12109C23.7598-9.13086 23.8379-9.11133 24.0332-8.91602L24.6094-8.33984L22.168-5.89844L21.5918-6.47461C21.3965-6.66992 21.3672-6.74805 21.377-7.01172L21.4453-7.98828L19.9512-9.47266L18.4277-9.21875C18.1055-9.15039 17.959-9.17969 17.7148-9.41406L15.7129-11.416C15.459-11.6504 15.4297-11.8164 15.5859-12.1875L16.4648-14.2773C14.9023-15.7324 12.8711-16.3574 10.8398-15.7617C10.6836-15.7227 10.625-15.8496 10.752-15.957Z"/>
  </g>
  <text style="stroke:none;fill:black;font-family:sans-serif;font-size:13;font-weight:bold;" transform="matrix(1 0 0 1 1289 1953)">Exporting</text>
  <text style="stroke:none;fill:black;font-family:sans-serif;font-size:13;" transform="matrix(1 0 0 1 1289 1971)">Symbols should be outlined when exporting to ensure the</text>
  <text style="stroke:none;fill:black;font-family:sans-serif;font-size:13;" transform="matrix(1 0 0 1 1289 1989)">design is preserved when submitting to Xcode.</text>
  <text id="template-version" style="stroke:none;fill:black;font-family:sans-serif;font-size:13;text-anchor:end;" transform="matrix(1 0 0 1 3036 1933)">Template v.4.0</text>
  <text style="stroke:none;fill:black;font-family:sans-serif;font-size:13;text-anchor:end;" transform="matrix(1 0 0 1 3036 1951)">Requires Xcode 14 or greater</text>
  <text id="descriptive-name" style="stroke:none;fill:black;font-family:sans-serif;font-size:13;text-anchor:end;" transform="matrix(1 0 0 1 3036 1969)">Generated from add.admin.icon</text>
  <text style="stroke:none;fill:black;font-family:sans-serif;font-size:13;text-anchor:end;" transform="matrix(1 0 0 1 3036 1987)">Typeset at 100 points</text>
  <text style="stroke:none;fill:black;font-family:sans-serif;font-size:13;" transform="matrix(1 0 0 1 263 726)">Small</text>
  <text style="stroke:none;fill:black;font-family:sans-serif;font-size:13;" transform="matrix(1 0 0 1 263 1156)">Medium</text>
  <text style="stroke:none;fill:black;font-family:sans-serif;font-size:13;" transform="matrix(1 0 0 1 263 1586)">Large</text>
 </g>
 <g id="Guides">
  <g id="H-reference" style="fill:#27AAE1;stroke:none;" transform="matrix(1 0 0 1 339 696)">
   <path d="M0.993654 0L3.63775 0L29.3281-67.1323L30.0303-67.1323L30.0303-70.459L28.1226-70.459ZM11.6885-24.4799L46.9815-24.4799L46.2315-26.7285L12.4385-26.7285ZM55.1196 0L57.7637 0L30.6382-70.459L29.4326-70.459L29.4326-67.1323Z"/>
  </g>
  <line id="Baseline-S" style="fill:none;stroke:#27AAE1;opacity:1;stroke-width:0.5;" x1="263" x2="3036" y1="696" y2="696"/>
  <line id="Capline-S" style="fill:none;stroke:#27AAE1;opacity:1;stroke-width:0.5;" x1="263" x2="3036" y1="625.541" y2="625.541"/>
  <g id="H-reference" style="fill:#27AAE1;stroke:none;" transform="matrix(1 0 0 1 339 1126)">
   <path d="M0.993654 0L3.63775 0L29.3281-67.1323L30.0303-67.1323L30.0303-70.459L28.1226-70.459ZM11.6885-24.4799L46.9815-24.4799L46.2315-26.7285L12.4385-26.7285ZM55.1196 0L57.7637 0L30.6382-70.459L29.4326-70.459L29.4326-67.1323Z"/>
  </g>
  <line id="Baseline-M" style="fill:none;stroke:#27AAE1;opacity:1;stroke-width:0.5;" x1="263" x2="3036" y1="1126" y2="1126"/>
  <line id="Capline-M" style="fill:none;stroke:#27AAE1;opacity:1;stroke-width:0.5;" x1="263" x2="3036" y1="1055.54" y2="1055.54"/>
  <g id="H-reference" style="fill:#27AAE1;stroke:none;" transform="matrix(1 0 0 1 339 1556)">
   <path d="M0.993654 0L3.63775 0L29.3281-67.1323L30.0303-67.1323L30.0303-70.459L28.1226-70.459ZM11.6885-24.4799L46.9815-24.4799L46.2315-26.7285L12.4385-26.7285ZM55.1196 0L57.7637 0L30.6382-70.459L29.4326-70.459L29.4326-67.1323Z"/>
  </g>
  <line id="Baseline-L" style="fill:none;stroke:#27AAE1;opacity:1;stroke-width:0.5;" x1="263" x2="3036" y1="1556" y2="1556"/>
  <line id="Capline-L" style="fill:none;stroke:#27AAE1;opacity:1;stroke-width:0.5;" x1="263" x2="3036" y1="1485.54" y2="1485.54"/>
  <line id="left-margin-Ultralight-S" style="fill:none;stroke:#FF3B30;stroke-width:0.5;opacity:1.0;" x1="498.29" x2="498.29" y1="600.785" y2="720.121"/>
  <line id="right-margin-Ultralight-S" style="fill:none;stroke:#FF3B30;stroke-width:0.5;opacity:1.0;" x1="621.133" x2="621.133" y1="600.785" y2="720.121"/>
  <line id="left-margin-Regular-S" style="fill:none;stroke:#00AEEF;stroke-width:0.5;opacity:1.0;" x1="1387.83" x2="1387.83" y1="600.785" y2="720.121"/>
  <line id="right-margin-Regular-S" style="fill:none;stroke:#FF3B30;stroke-width:0.5;opacity:1.0;" x1="1511.86" x2="1511.86" y1="600.785" y2="720.121"/>
  <line id="left-margin-Black-S" style="fill:none;stroke:#FF3B30;stroke-width:0.5;opacity:1.0;" x1="2870.29" x2="2870.29" y1="600.785" y2="720.121"/>
  <line id="right-margin-Black-S" style="fill:none;stroke:#FF3B30;stroke-width:0.5;opacity:1.0;" x1="2996.51" x2="2996.51" y1="600.785" y2="720.121"/>
 </g>
 <g id="Symbols">
  <g id="Black-S" transform="matrix(1 0 0 1 2870.29 696)">
   <path class="monochrome-0 multicolor-0:white SFSymbolsPreviewFFFFFF" d="M83.4961-28.9551C63.6719-28.9551 50.5371-15.8203 50.5371-6.15234C50.5371-1.85547 52.9297 0.927734 60.498 0.927734L89.6973 0.927734C88.916-1.5625 88.5254-4.15039 88.5254-6.83594C88.5254-14.5996 91.8945-21.6797 97.2168-26.6602C93.1641-28.125 88.5254-28.9551 83.4961-28.9551ZM114.014 15.2344L117.432 15.2344C119.238 15.2344 120.703 14.0625 121.094 12.3535L121.875 8.98438C122.119 8.88672 122.314 8.83789 122.51 8.74023L125.391 10.5469C126.904 11.4746 128.809 11.3281 130.127 10.0098L132.52 7.61719C133.789 6.34766 133.887 4.39453 132.959 2.88086L131.201 0C131.299-0.195312 131.348-0.341797 131.445-0.537109L134.814-1.36719C136.572-1.80664 137.744-3.22266 137.744-5.0293L137.744-8.39844C137.744-10.2051 136.572-11.7188 134.814-12.1094L131.494-12.8906C131.445-13.0371 131.348-13.2812 131.25-13.4277L133.057-16.4062C133.984-17.9199 133.838-19.873 132.52-21.1426L130.029-23.5352C128.857-24.6582 127.051-25 125.537-24.0723L122.51-22.2168C122.314-22.3145 122.119-22.3633 121.924-22.4609L121.094-25.8789C120.654-27.6367 119.238-28.8086 117.432-28.8086L114.014-28.8086C112.158-28.8086 110.791-27.6367 110.352-25.8301L109.521-22.5098C109.326-22.4609 109.082-22.3145 108.887-22.2168L105.859-24.0723C104.443-24.9512 102.588-24.707 101.367-23.5352L98.877-21.1426C97.5586-19.9219 97.4609-17.9688 98.3887-16.4062L100.195-13.4277C100.049-13.2812 100-13.0371 99.9023-12.8906L96.6309-12.1094C94.8242-11.6699 93.7012-10.2051 93.7012-8.39844L93.7012-5.0293C93.7012-3.22266 94.873-1.80664 96.6309-1.36719L100-0.537109C100.049-0.341797 100.146-0.195312 100.195 0L98.4375 2.88086C97.5098 4.39453 97.6074 6.34766 98.877 7.61719L101.318 10.0098C102.588 11.2793 104.492 11.4746 106.006 10.5469L108.936 8.74023C109.082 8.83789 109.326 8.88672 109.521 8.98438L110.352 12.3535C110.791 14.0625 112.158 15.2344 114.014 15.2344ZM18.4082 0.976562L45.3613 0.976562C40.7715-5.17578 43.3105-16.5039 53.7109-25.1953C49.8047-27.3438 44.2871-29.0039 38.4277-29.0039C22.1191-29.0039 9.76562-17.041 9.76562-7.66602C9.76562-2.29492 11.8164 0.976562 18.4082 0.976562ZM83.4961-35.4492C92.5781-35.4492 99.5117-43.2129 99.5608-52.8809C99.6094-62.0605 92.4805-70.0684 83.4961-70.0684C74.5117-70.0684 67.4316-62.0605 67.4316-52.8809C67.4316-43.2129 74.4141-35.4492 83.4961-35.4492ZM38.4277-34.6191C46.3379-34.6191 52.4414-41.4062 52.4414-49.8047C52.4414-57.8125 46.2402-64.7949 38.4277-64.7949C30.6152-64.7949 24.4141-57.8125 24.4629-49.8047C24.5117-41.4062 30.5176-34.6191 38.4277-34.6191ZM115.723-0.634766C112.402-0.634766 109.619-3.41797 109.619-6.78711C109.619-10.1074 112.402-12.8906 115.723-12.8906C119.043-12.8906 121.875-10.1074 121.875-6.78711C121.875-3.41797 119.043-0.634766 115.723-0.634766Z"/>
   <path class="monochrome-1 multicolor-1:systemGreenColor SFSymbolsPreview28CD41" d="M21.21-49C33.06-49 42.71-58.65 42.71-70.5C42.71-82.35 33.06-92 21.21-92C9.36-92-0.29-82.35-0.29-70.5C-0.29-58.65 9.36-49 21.21-49ZM11.6544-70.5C11.6544-72.1877 12.8954-73.4784 14.5335-73.4784L18.2317-73.4784L18.2317-77.1765C18.2317-78.8146 19.5222-80.0556 21.21-80.0556C22.8977-80.0556 24.1883-78.8146 24.1883-77.1765L24.1883-73.4784L27.8865-73.4784C29.5245-73.4784 30.7656-72.1877 30.7656-70.5C30.7656-68.8123 29.5245-67.5216 27.8865-67.5216L24.1883-67.5216L24.1883-63.8235C24.1883-62.1854 22.8977-60.9444 21.21-60.9444C19.5222-60.9444 18.2317-62.1854 18.2317-63.8235L18.2317-67.5216L14.5335-67.5216C12.8954-67.5216 11.6544-68.8123 11.6544-70.5Z"/>
  </g>
  <g id="Regular-S" transform="matrix(1 0 0 1 1387.83 696)">
   <path class="monochrome-0 multicolor-0:white SFSymbolsPreviewFFFFFF" d="M81.9824-28.8574C62.0605-28.8574 49.6582-15.1855 49.6582-5.27344C49.6582-1.9043 51.8066-0.0488281 58.3496-0.0488281L89.8438-0.0488281C89.3066-1.95312 89.0625-4.00391 89.0625-6.10352C89.0625-13.8184 92.5781-20.752 98.0469-25.4395C93.5059-27.4902 88.0859-28.8574 81.9824-28.8574ZM112.842 14.0137L116.162 14.0137C117.383 14.0137 118.311 13.2812 118.604 12.0605L119.531 8.25195C120.068 8.10547 120.703 7.86133 121.24 7.56836L124.561 9.61914C125.586 10.2539 126.709 10.2539 127.637 9.32617L129.932 6.98242C130.762 6.10352 130.859 4.98047 130.176 3.85742L128.174 0.537109C128.516 0 128.662-0.488281 128.857-1.02539L132.666-1.95312C133.887-2.24609 134.668-3.17383 134.668-4.39453L134.668-7.71484C134.668-8.83789 133.838-9.7168 132.666-10.0098L128.906-10.9375C128.662-11.6211 128.418-12.1094 128.223-12.5488L130.322-16.0156C130.957-17.041 130.859-18.2617 130.029-19.043L127.637-21.3379C126.758-22.2168 125.586-22.4121 124.609-21.7773L121.24-19.6289C120.605-19.9707 120.068-20.1172 119.531-20.3125L118.604-24.2188C118.311-25.3906 117.383-26.1719 116.162-26.1719L112.842-26.1719C111.621-26.1719 110.645-25.3418 110.4-24.2188L109.521-20.3613C108.838-20.1172 108.301-19.9707 107.715-19.6289L104.346-21.7773C103.467-22.3633 102.246-22.2168 101.367-21.3379L99.0723-19.043C98.2422-18.2129 97.998-17.041 98.6328-16.0156L100.781-12.5488C100.586-12.1094 100.342-11.5234 100.098-10.9375L96.2891-10.0098C95.1172-9.7168 94.3359-8.78906 94.3359-7.71484L94.3359-4.39453C94.3359-3.17383 95.1172-2.24609 96.2891-1.95312L100.146-1.02539C100.391-0.488281 100.586 0 100.83 0.537109L98.8281 3.90625C98.1934 4.98047 98.291 6.15234 99.1211 6.98242L101.367 9.32617C102.246 10.2539 103.418 10.2539 104.395 9.61914L107.812 7.56836C108.447 7.91016 108.984 8.10547 109.521 8.25195L110.4 12.0605C110.645 13.2324 111.621 14.0137 112.842 14.0137ZM16.8945-0.0488281L44.873-0.0488281C40.9668-6.54297 46.2891-18.1641 54.4434-24.3164C50.1953-27.002 44.8242-28.9551 37.8906-28.9551C20.6055-28.9551 9.76562-16.0645 9.76562-5.56641C9.76562-2.09961 11.6699-0.0488281 16.8945-0.0488281ZM81.9336-35.6934C90.1367-35.6934 97.3633-43.0664 97.3633-52.5879C97.3633-62.0605 90.1367-69.1895 81.9336-69.1895C73.7793-69.1895 66.5527-62.2559 66.5527-52.6855C66.5527-43.0664 73.7793-35.6934 81.9336-35.6934ZM37.8906-34.8145C45.0195-34.8145 51.3184-41.2598 51.3184-49.6094C51.3184-57.959 45.0195-63.9648 37.8906-63.9648C30.8105-63.9648 24.4629-57.8125 24.4629-49.5117C24.4629-41.2598 30.8105-34.8145 37.8906-34.8145ZM114.502 0.439453C110.889 0.439453 108.057-2.44141 108.057-6.05469C108.057-9.57031 110.889-12.5 114.502-12.5488C118.018-12.5977 120.996-9.57031 120.996-6.05469C120.996-2.44141 118.018 0.439453 114.502 0.439453Z"/>
   <path class="monochrome-1 multicolor-1:systemGreenColor SFSymbolsPreview28CD41" d="M21.6567-49C33.3984-49 43.17-58.7509 43.17-70.5C43.17-82.2491 33.3718-92 21.63-92C9.91487-92 0.17-82.2491 0.17-70.5C0.17-58.7509 9.94153-49 21.6567-49ZM11.17-70.4732C11.17-71.7353 12.0551-72.5946 13.3156-72.5946L19.5915-72.5946L19.5915-78.8785C19.5915-80.1407 20.396-81 21.6298-81C22.8903-81 23.7485-80.1407 23.7485-78.8785L23.7485-72.5946L30.0512-72.5946C31.2849-72.5946 32.17-71.7353 32.17-70.4732C32.17-69.2379 31.2849-68.4054 30.0512-68.4054L23.7485-68.4054L23.7485-62.1215C23.7485-60.8593 22.8903-60 21.6298-60C20.396-60 19.5915-60.8862 19.5915-62.1215L19.5915-68.4054L13.3156-68.4054C12.0551-68.4054 11.17-69.2379 11.17-70.4732Z"/>
  </g>
  <g id="Ultralight-S" transform="matrix(1 0 0 1 498.29 696)">
   <path class="monochrome-0 multicolor-0:white SFSymbolsPreviewFFFFFF" d="M81.5737-28.4941C62.0151-28.4941 49.8398-15.0493 49.8398-5.31885C49.8398-2.04053 51.9429-0.911614 55.7158-0.911614L93.0678-0.911614C92.8032-2.22558 92.6499-3.59522 92.6499-4.92286C92.6499-12.229 96.3925-18.7085 102.043-22.5786C96.8208-26.0825 89.8569-28.4941 81.5737-28.4941ZM112.479 13.4688L115.481 13.4688C116.611 13.4688 117.448 12.7817 117.695 11.6519L118.532 8.16113C118.979 8.01465 119.568 7.77051 120.06 7.52295L123.153 9.39209C124.087 9.98145 125.12 9.98145 125.957 9.14453L128.07 6.98242C128.809 6.19434 128.907 5.16211 128.269 4.12988L126.448 1.03662C126.745 0.544918 126.891 0.102046 127.086-0.389653L130.577-1.22657C131.707-1.47413 132.397-2.35645 132.397-3.44093L132.397-6.44337C132.397-7.52101 131.658-8.26368 130.577-8.55665L127.135-9.43898C126.891-10.0318 126.647-10.4746 126.497-10.9141L128.415-14.063C129.004-14.9976 128.861-16.1275 128.122-16.8633L125.957-18.9766C125.168-19.7647 124.087-19.9146 123.202-19.3706L120.06-17.4038C119.47-17.7002 118.979-17.8467 118.532-18.042L117.695-21.585C117.448-22.666 116.611-23.4019 115.481-23.4019L112.479-23.4019C111.394-23.4019 110.508-22.6172 110.264-21.585L109.476-18.0908C108.838-17.8467 108.346-17.7002 107.806-17.4038L104.709-19.3706C103.875-19.9112 102.746-19.7647 101.958-18.9766L99.8896-16.8633C99.1504-16.0786 98.8608-14.9976 99.4502-14.063L101.417-10.9141C101.267-10.4746 101.023-9.9795 100.824-9.43898L97.3789-8.55665C96.2978-8.26368 95.6074-7.47218 95.6074-6.44337L95.6074-3.44093C95.6074-2.35645 96.2978-1.47413 97.3789-1.22657L100.828-0.389653C101.072 0.102046 101.267 0.544918 101.466 1.03662L99.6455 4.17871C99.0561 5.16211 99.1538 6.24316 99.8931 6.98242L101.958 9.14453C102.746 9.98145 103.827 9.93604 104.758 9.39209L107.903 7.52295C108.493 7.81934 108.984 8.01465 109.476 8.16113L110.264 11.6519C110.508 12.7329 111.394 13.4688 112.479 13.4688ZM14.8511-0.911614L48.5058-0.911614C44.2817-3.4551 47.061-14.9854 55.6694-22.3638C51.4668-26.0029 45.46-28.6826 37.3457-28.6826C20.333-28.6826 9.76562-16.4731 9.76562-5.61182C9.76562-2.23584 11.5791-0.911614 14.8511-0.911614ZM81.4795-35.3755C89.8643-35.3755 96.2734-42.5669 96.2734-51.9067C96.4097-60.6528 89.728-68.0542 81.4795-68.0542C73.2344-68.0542 66.6436-60.6665 66.6436-51.9136C66.6436-42.5669 73.0981-35.3755 81.4795-35.3755ZM37.4365-34.542C44.7471-34.542 50.3648-40.7603 50.3648-48.9282C50.3648-56.5513 44.6108-63.0112 37.4365-63.0112C30.2656-63.0112 24.4629-56.541 24.5537-48.9214C24.5537-40.7603 30.1294-34.542 37.4365-34.542ZM114.002 0.984371C110.662 0.984371 108.057-1.66944 108.057-4.91944C108.057-8.16261 110.662-10.8652 114.002-10.9141C117.2-10.9629 119.906-8.16261 119.906-4.91944C119.906-1.66944 117.2 0.984371 114.002 0.984371Z"/>
   <path class="monochrome-1 multicolor-1:systemGreenColor SFSymbolsPreview28CD41" d="M21.209-49C33.016-49 42.71-58.6924 42.71-70.5C42.71-82.3076 33.0141-92 21.207-92C9.37577-92-0.29-82.3076-0.29-70.5C-0.29-58.6924 9.37773-49 21.209-49ZM11.71-70.4724C11.71-70.8453 12.0045-71.1635 12.3773-71.1635L20.5475-71.1635L20.5475-79.3346C20.5475-79.6818 20.8619-80 21.1814-80C21.5542-80 21.8725-79.7074 21.8725-79.3346L21.8725-71.1635L30.0446-71.1635C30.4155-71.1635 30.71-70.8453 30.71-70.4724C30.71-70.1528 30.3899-69.8365 30.0446-69.8365L21.8725-69.8365L21.8725-61.6655C21.8725-61.2926 21.5542-61 21.1814-61C20.8619-61 20.5475-61.3202 20.5475-61.6655L20.5475-69.8365L12.3773-69.8365C12.0301-69.8365 11.71-70.1528 11.71-70.4724Z"/>
  </g>
 </g>
</svg>
